<?xml version="1.0" standalone="no"?>
<svg xmlns="http://www.w3.org/2000/svg" viewBox="0 0 80 69" width="80" height="69"><g fill="#d29494" color="#d29494" transform="translate(17.661 0) scale(0.44) "><svg width="100.0" height="100.0" x="0.0" y="0.0" viewBox="0 0 100 100"><circle cx="50" cy="50" r="36"></circle></svg></g><path fill="#182bc2" fill-rule="nonzero" d="M2.16 16.08L2.16 3.12Q2.16 1.90 1.82 1.31Q1.49 0.72 0.48 0.72L0.48 0.72L0 0.72L0 0.24L6.29 0.24Q10.94 0.24 13.33 2.30Q15.72 4.37 15.72 8.06L15.72 8.06Q15.72 10.44 14.71 12.25Q13.70 14.06 11.72 15.07Q9.74 16.08 6.91 16.08L6.91 16.08L2.16 16.08ZM6.84 15.24Q8.62 15.24 10.04 14.36Q11.47 13.49 12.29 11.89Q13.10 10.30 13.10 8.16L13.10 8.16Q13.10 6.07 12.30 4.46Q11.50 2.86 10.06 1.97Q8.62 1.08 6.79 1.08L6.79 1.08Q5.64 1.08 4.39 1.46L4.39 1.46L4.39 14.93Q5.74 15.24 6.84 15.24L6.84 15.24ZM23.14 16.32Q21.50 16.32 20.30 15.54Q19.10 14.76 18.48 13.42Q17.86 12.07 17.86 10.44L17.86 10.44Q17.86 8.81 18.48 7.46Q19.10 6.12 20.30 5.34Q21.50 4.56 23.14 4.56L23.14 4.56Q24.77 4.56 25.97 5.34Q27.17 6.12 27.79 7.46Q28.42 8.81 28.42 10.44L28.42 10.44Q28.42 12.07 27.79 13.42Q27.17 14.76 25.97 15.54Q24.77 16.32 23.14 16.32L23.14 16.32ZM23.14 15.36Q24.02 15.36 24.71 14.71Q25.39 14.06 25.76 12.94Q26.14 11.81 26.14 10.44L26.14 10.44Q26.14 9.07 25.76 7.94Q25.39 6.82 24.71 6.17Q24.02 5.52 23.14 5.52L23.14 5.52Q22.25 5.52 21.56 6.17Q20.88 6.82 20.51 7.94Q20.14 9.07 20.14 10.44L20.14 10.44Q20.14 11.81 20.51 12.94Q20.88 14.06 21.56 14.71Q22.25 15.36 23.14 15.36L23.14 15.36ZM34.56 16.32Q33.22 16.32 32.45 15.55Q31.68 14.78 31.68 13.20L31.68 13.20L31.68 5.76L30.00 5.76L30.00 4.80L31.68 4.80L31.68 2.64L32.88 1.20L33.84 1.20L33.84 4.80L36.72 4.80L36.72 5.76L33.84 5.76L33.84 13.20Q33.84 15.36 35.52 15.36L35.52 15.36Q36.10 15.36 36.49 15.24Q36.89 15.12 37.32 14.88L37.32 14.88L37.56 15.36Q37.01 15.77 36.34 16.04Q35.66 16.32 34.56 16.32L34.56 16.32ZM39.79 16.08L39.79 5.76L38.11 5.76L38.11 4.80L39.79 4.80L39.79 4.08Q39.79 0 43.99 0L43.99 0Q45.50 0 46.03 0.36L46.03 0.36Q46.44 0.67 46.87 1.44L46.87 1.44L46.15 2.04Q45.43 0.96 43.87 0.96L43.87 0.96Q41.95 0.96 41.95 4.08L41.95 4.08L41.95 4.80L45.31 4.80L45.31 5.76L41.95 5.76L41.95 16.08L39.79 16.08ZM49.01 3.36Q48.46 3.36 48.06 2.90Q47.66 2.45 47.66 1.82L47.66 1.82Q47.66 1.32 47.96 1.03Q48.26 0.74 48.77 0.74L48.77 0.74Q49.32 0.74 49.72 1.20Q50.11 1.66 50.11 2.28L50.11 2.28Q50.11 2.78 49.81 3.07Q49.51 3.36 49.01 3.36L49.01 3.36ZM48.10 16.08L48.10 7.68Q48.10 6.46 47.76 5.87Q47.42 5.28 46.42 5.28L46.42 5.28L45.94 5.28L45.94 4.80L48.10 4.80Q48.98 4.80 49.43 5.03Q49.87 5.26 50.06 5.86Q50.26 6.46 50.26 7.68L50.26 7.68L50.26 16.08L48.10 16.08ZM53.93 16.08L53.93 3.12Q53.93 1.90 53.59 1.31Q53.26 0.72 52.25 0.72L52.25 0.72L51.77 0.72L51.77 0.24L53.93 0.24Q54.82 0.24 55.26 0.47Q55.70 0.70 55.90 1.30Q56.09 1.90 56.09 3.12L56.09 3.12L56.09 16.08L53.93 16.08ZM64.03 16.32Q62.40 16.32 61.27 15.54Q60.14 14.76 59.57 13.43Q58.99 12.10 58.99 10.44L58.99 10.44Q58.99 8.81 59.57 7.46Q60.14 6.12 61.24 5.34Q62.33 4.56 63.79 4.56L63.79 4.56Q66.22 4.56 67.40 5.92Q68.59 7.27 68.59 9.84L68.59 9.84L68.54 10.80L61.27 10.80Q61.27 12.82 62.14 14.09Q63.00 15.36 64.51 15.36L64.51 15.36Q65.64 15.36 66.42 14.88Q67.20 14.40 67.87 13.44L67.87 13.44L68.35 13.80Q67.56 15.12 66.50 15.72Q65.45 16.32 64.03 16.32L64.03 16.32ZM61.27 9.84L66.31 9.84Q66.31 7.73 65.69 6.62Q65.06 5.52 63.79 5.52L63.79 5.52Q63.07 5.52 62.50 6.08Q61.92 6.65 61.60 7.63Q61.27 8.62 61.27 9.84L61.27 9.84ZM75.12 16.32Q72.36 16.32 71.40 15.36L71.40 15.36Q70.99 14.95 70.90 14.44Q70.80 13.92 70.80 12.84L70.80 12.84L71.28 12.84Q71.50 14.04 72.32 14.70Q73.15 15.36 74.64 15.36L74.64 15.36Q75.96 15.36 76.62 14.90Q77.28 14.45 77.28 13.68L77.28 13.68Q77.28 12.98 76.76 12.48Q76.25 11.98 75.12 11.52L75.12 11.52L73.68 10.92Q72.24 10.34 71.52 9.58Q70.80 8.81 70.80 7.68L70.80 7.68Q70.80 6.22 71.90 5.39Q73.01 4.56 74.76 4.56L74.76 4.56Q77.40 4.56 78.36 5.52L78.36 5.52Q78.77 5.93 78.86 6.43Q78.96 6.94 78.96 8.04L78.96 8.04L78.48 8.04Q78.29 6.84 77.47 6.18Q76.66 5.52 75.24 5.52L75.24 5.52Q74.11 5.52 73.48 5.99Q72.84 6.46 72.84 7.20L72.84 7.20Q72.84 8.45 74.76 9.24L74.76 9.24L76.20 9.84Q77.83 10.51 78.58 11.27Q79.32 12.02 79.32 13.20L79.32 13.20Q79.32 14.66 78.14 15.49Q76.97 16.32 75.12 16.32L75.12 16.32Z" transform="translate(0, 52)"></path></svg>